<?xml version="1.0" encoding="UTF-8"?>
<svg width="620px" height="281px" viewBox="0 0 620 281" version="1.1" xmlns="http://www.w3.org/2000/svg" xmlns:xlink="http://www.w3.org/1999/xlink">
    <!-- Generator: Sketch 59.1 (86144) - https://sketch.com -->
    <title>编组</title>
    <desc>Created with Sketch.</desc>
    <defs>
        <polygon id="path-1" points="0 281 619.349554 281 619.349554 0.688657635 0 0.688657635"></polygon>
        <polygon id="path-3" points="0 0.154419335 48.3750848 0.154419335 48.3750848 128.055416 0 128.055416"></polygon>
        <linearGradient x1="50%" y1="0%" x2="50%" y2="100%" id="linearGradient-5">
            <stop stop-color="#FFFFFF" offset="0%"></stop>
            <stop stop-color="#2A3795" offset="100%"></stop>
        </linearGradient>
        <path d="M0.397384615,0.0536470588 C5.02061538,20.4211765 22.923,35.6018824 44.3049231,35.6018824 L44.3049231,35.6018824 C59.238,35.6018824 72.4728462,28.1950588 80.6732308,16.7894118 L80.6732308,16.7894118 L65.0007692,7.00870588 C60.0853846,13.0948235 52.6416923,16.9785882 44.3049231,16.9785882 L44.3049231,16.9785882 C33.1158462,16.9785882 23.5322308,9.98470588 19.5175385,0.0536470588 L19.5175385,0.0536470588 L0.397384615,0.0536470588 Z" id="path-6"></path>
        <linearGradient x1="117.294816%" y1="67.0070276%" x2="-86.0253042%" y2="7.36705105%" id="linearGradient-8">
            <stop stop-color="#FFFFFF" stop-opacity="0.5" offset="0%"></stop>
            <stop stop-color="#2A3795" offset="100%"></stop>
        </linearGradient>
        <linearGradient x1="103.285711%" y1="100%" x2="-39.739849%" y2="-20.8795276%" id="linearGradient-9">
            <stop stop-color="#FFFFFF" offset="0%"></stop>
            <stop stop-color="#2A3795" offset="100%"></stop>
        </linearGradient>
    </defs>
    <g id="页面-1" stroke="none" stroke-width="1" fill="none" fill-rule="evenodd">
        <g id="画板" transform="translate(-65.000000, -100.000000)">
            <g id="编组" transform="translate(65.000000, 100.000000)">
                <g>
                    <path d="M484.052752,278.405041 C484.052752,279.061169 483.520632,279.593408 482.86465,279.593408 C482.208667,279.593408 481.676547,279.061169 481.676547,278.405041 C481.676547,277.748913 482.208667,277.216674 482.86465,277.216674 C483.520632,277.216674 484.052752,277.748913 484.052752,278.405041" id="Fill-1" fill="#00FF8C"></path>
                    <path d="M493.218234,278.405041 C493.218234,279.061169 492.686114,279.593408 492.030132,279.593408 C491.37415,279.593408 490.842029,279.061169 490.842029,278.405041 C490.842029,277.748913 491.37415,277.216674 492.030132,277.216674 C492.686114,277.216674 493.218234,277.748913 493.218234,278.405041" id="Fill-3" fill="#00FF8C"></path>
                    <path d="M502.383717,278.405041 C502.383717,279.061169 501.851596,279.593408 501.196306,279.593408 C500.539632,279.593408 500.008203,279.061169 500.008203,278.405041 C500.008203,277.748913 500.539632,277.216674 501.196306,277.216674 C501.851596,277.216674 502.383717,277.748913 502.383717,278.405041" id="Fill-5" fill="#00FF8C"></path>
                    <path d="M511.549545,278.405041 C511.549545,279.061169 511.017424,279.593408 510.361442,279.593408 C509.70546,279.593408 509.173339,279.061169 509.173339,278.405041 C509.173339,277.748913 509.70546,277.216674 510.361442,277.216674 C511.017424,277.216674 511.549545,277.748913 511.549545,278.405041" id="Fill-7" fill="#00FF8C"></path>
                    <mask id="mask-2" fill="white">
                        <use xlink:href="#path-1"></use>
                    </mask>
                    <g id="Clip-10"></g>
                    <polygon id="Fill-9" fill="#00FF8C" mask="url(#mask-2)" points="522.215067 281 546.777031 281 546.777031 275.809805 522.215067 275.809805"></polygon>
                    <path d="M344.429375,254.584754 C345.880424,254.584754 346.831183,253.80889 346.831183,252.657897 L346.831183,252.632981 C346.831183,251.382323 345.892879,250.731732 344.479196,250.731732 L342.265603,250.731732 L342.265603,254.584754 L344.429375,254.584754 Z M341.277478,249.818828 L344.554621,249.818828 C346.530871,249.818828 347.831763,250.869464 347.831763,252.595606 L347.831763,252.621215 C347.831763,254.510005 346.255469,255.485892 344.392009,255.485892 L342.265603,255.485892 L342.265603,258.575508 L341.277478,258.575508 L341.277478,249.818828 Z" id="Fill-11" fill="#FFFFFF" mask="url(#mask-2)"></path>
                    <path d="M357.148578,254.222084 L357.148578,254.197168 C357.148578,252.20802 355.697529,250.581542 353.696368,250.581542 C351.695208,250.581542 350.269761,252.183104 350.269761,254.172252 L350.269761,254.197168 C350.269761,256.185624 351.720118,257.812101 353.721279,257.812101 C355.72244,257.812101 357.148578,256.211232 357.148578,254.222084 M349.24427,254.222084 L349.24427,254.197168 C349.24427,251.782367 351.057217,249.667946 353.721279,249.667946 C356.385342,249.667946 358.174069,251.757451 358.174069,254.172252 L358.174069,254.197168 C358.174069,256.611276 356.360431,258.725698 353.696368,258.725698 C351.032306,258.725698 349.24427,256.636193 349.24427,254.222084" id="Fill-12" fill="#FFFFFF" mask="url(#mask-2)"></path>
                    <polygon id="Fill-13" fill="#FFFFFF" mask="url(#mask-2)" points="359.136315 249.81862 360.212319 249.81862 362.71377 257.112162 365.114886 249.793704 365.927944 249.793704 368.329752 257.112162 370.830511 249.81862 371.86915 249.81862 368.742163 258.638283 367.904194 258.638283 365.503078 251.532305 363.088815 258.638283 362.263301 258.638283"></polygon>
                    <polygon id="Fill-14" fill="#FFFFFF" mask="url(#mask-2)" points="373.656424 249.81862 379.985129 249.81862 379.985129 250.719066 374.644549 250.719066 374.644549 253.709017 379.422562 253.709017 379.422562 254.609463 374.644549 254.609463 374.644549 257.674854 380.047406 257.674854 380.047406 258.5753 373.656424 258.5753"></polygon>
                    <path d="M385.713071,254.284652 C387.02642,254.284652 387.964723,253.609144 387.964723,252.483068 L387.964723,252.458152 C387.964723,251.381908 387.13921,250.732009 385.725527,250.732009 L383.024098,250.732009 L383.024098,254.284652 L385.713071,254.284652 Z M382.035973,249.818413 L385.800951,249.818413 C386.876263,249.818413 387.739143,250.143708 388.289946,250.694634 C388.714812,251.119595 388.965304,251.732812 388.965304,252.420777 L388.965304,252.445694 C388.965304,253.897066 387.964723,254.747679 386.588406,254.997533 L389.277379,258.575785 L388.064366,258.575785 L385.525549,255.173332 L383.024098,255.173332 L383.024098,258.575785 L382.035973,258.575785 L382.035973,249.818413 Z" id="Fill-15" fill="#FFFFFF" mask="url(#mask-2)"></path>
                    <polygon id="Fill-16" fill="#FFFFFF" mask="url(#mask-2)" points="391.077801 249.81862 397.406507 249.81862 397.406507 250.719066 392.065926 250.719066 392.065926 253.709017 396.84394 253.709017 396.84394 254.609463 392.065926 254.609463 392.065926 257.674854 397.468783 257.674854 397.468783 258.5753 391.077801 258.5753"></polygon>
                    <path d="M400.444991,250.731801 L400.444991,257.662673 L402.495973,257.662673 C404.710259,257.662673 406.123942,256.161469 406.123942,254.222153 L406.123942,254.197237 C406.123942,252.257922 404.710259,250.731801 402.495973,250.731801 L400.444991,250.731801 Z M399.456866,249.818897 L402.495973,249.818897 C405.247915,249.818897 407.149433,251.707688 407.149433,254.172321 L407.149433,254.197237 C407.149433,256.661178 405.247915,258.575577 402.495973,258.575577 L399.456866,258.575577 L399.456866,249.818897 Z" id="Fill-17" fill="#FFFFFF" mask="url(#mask-2)"></path>
                    <path d="M416.728848,254.597212 L413.964451,254.597212 L413.964451,257.68752 L416.903915,257.68752 C418.229719,257.68752 419.055232,257.09922 419.055232,256.123333 L419.055232,256.098417 C419.055232,255.147446 418.254629,254.597212 416.728848,254.597212 L416.728848,254.597212 Z M418.567397,252.132579 C418.567397,251.269508 417.879585,250.706816 416.628513,250.706816 L413.964451,250.706816 L413.964451,253.721683 L416.553781,253.721683 C417.741884,253.721683 418.567397,253.183907 418.567397,252.158188 L418.567397,252.132579 Z M412.988781,249.818828 L416.716393,249.818828 C417.716973,249.818828 418.504429,250.106057 419.005411,250.594 C419.367308,250.969129 419.567978,251.432156 419.567978,251.994848 L419.567978,252.019764 C419.567978,253.158299 418.86771,253.746599 418.179897,254.046978 C419.217844,254.359816 420.055812,254.959882 420.055812,256.1614 L420.055812,256.185624 C420.055812,257.68752 418.792286,258.575508 416.879004,258.575508 L412.988781,258.575508 L412.988781,249.818828 Z" id="Fill-18" fill="#FFFFFF" mask="url(#mask-2)"></path>
                    <polygon id="Fill-19" fill="#FFFFFF" mask="url(#mask-2)" points="424.382319 255.11021 420.742587 249.818274 421.943837 249.818274 424.895065 254.197306 427.871895 249.818274 429.022632 249.818274 425.3829 255.097752 425.3829 258.575646 424.382319 258.575646"></polygon>
                    <path d="M429.884888,258.575369 L431.035625,258.575369 L431.035625,257.261729 L429.884888,257.261729 L429.884888,258.575369 Z M429.884888,253.421857 L431.035625,253.421857 L431.035625,252.108217 L429.884888,252.108217 L429.884888,253.421857 Z" id="Fill-20" fill="#FFFFFF" mask="url(#mask-2)"></path>
                    <polygon id="Fill-21" fill="#FFFFFF" mask="url(#mask-2)" points="439.352482 250.731801 436.413018 250.731801 436.413018 249.818897 443.292527 249.818897 443.292527 250.731801 440.353062 250.731801 440.353062 258.575577 439.352482 258.575577"></polygon>
                    <polygon id="Fill-22" fill="#FFFFFF" mask="url(#mask-2)" points="445.142632 249.81862 451.471337 249.81862 451.471337 250.719066 446.130757 250.719066 446.130757 253.709017 450.90877 253.709017 450.90877 254.609463 446.130757 254.609463 446.130757 257.674854 451.533614 257.674854 451.533614 258.5753 445.142632 258.5753"></polygon>
                    <polygon id="Fill-23" fill="#FFFFFF" mask="url(#mask-2)" points="453.521835 249.81862 454.447683 249.81862 459.96333 256.836699 459.96333 249.81862 460.926545 249.81862 460.926545 258.5753 460.138397 258.5753 454.485049 251.394574 454.485049 258.5753 453.521835 258.5753"></polygon>
                    <path d="M463.014062,254.222084 L463.014062,254.197168 C463.014062,251.720077 464.865067,249.667946 467.441942,249.667946 C469.03,249.667946 469.980759,250.231331 470.856094,251.057028 L470.180737,251.782367 C469.443103,251.081944 468.617589,250.581542 467.429487,250.581542 C465.490603,250.581542 464.039554,252.158188 464.039554,254.172252 L464.039554,254.197168 C464.039554,256.22369 465.503058,257.812101 467.429487,257.812101 C468.630045,257.812101 469.418192,257.349767 470.256161,256.548986 L470.906607,257.187119 C469.993214,258.113173 468.992634,258.725698 467.403884,258.725698 C464.877522,258.725698 463.014062,256.73655 463.014062,254.222084" id="Fill-24" fill="#FFFFFF" mask="url(#mask-2)"></path>
                    <polygon id="Fill-25" fill="#FFFFFF" mask="url(#mask-2)" points="472.631605 249.81862 478.96031 249.81862 478.96031 250.719066 473.61973 250.719066 473.61973 253.709017 478.397743 253.709017 478.397743 254.609463 473.61973 254.609463 473.61973 257.674854 479.022587 257.674854 479.022587 258.5753 472.631605 258.5753"></polygon>
                    <polygon id="Fill-26" fill="#FFFFFF" mask="url(#mask-2)" points="481.010877 249.81862 481.936725 249.81862 487.452373 256.836699 487.452373 249.81862 488.415587 249.81862 488.415587 258.5753 487.62744 258.5753 481.974092 251.394574 481.974092 258.5753 481.010877 258.5753"></polygon>
                    <polygon id="Fill-27" fill="#FFFFFF" mask="url(#mask-2)" points="493.205087 250.731801 490.265623 250.731801 490.265623 249.818897 497.14444 249.818897 497.14444 250.731801 494.205667 250.731801 494.205667 258.575577 493.205087 258.575577"></polygon>
                    <path d="M502.359083,254.222084 L502.359083,254.197168 C502.359083,251.720077 504.210087,249.667946 506.786962,249.667946 C508.37502,249.667946 509.325779,250.231331 510.201114,251.057028 L509.525757,251.782367 C508.788123,251.081944 507.962609,250.581542 506.773815,250.581542 C504.835623,250.581542 503.384574,252.158188 503.384574,254.172252 L503.384574,254.197168 C503.384574,256.22369 504.848078,257.812101 506.773815,257.812101 C507.975065,257.812101 508.763212,257.349767 509.600489,256.548986 L510.251627,257.187119 C509.338234,258.113173 508.337654,258.725698 506.748904,258.725698 C504.222542,258.725698 502.359083,256.73655 502.359083,254.222084" id="Fill-28" fill="#FFFFFF" mask="url(#mask-2)"></path>
                    <polygon id="Fill-29" fill="#FFFFFF" mask="url(#mask-2)" points="511.976625 249.81862 512.96475 249.81862 512.96475 257.662396 517.89292 257.662396 517.89292 258.5753 511.976625 258.5753"></polygon>
                    <path d="M526.734562,254.222084 L526.734562,254.197168 C526.734562,252.20802 525.283513,250.581542 523.282353,250.581542 C521.281192,250.581542 519.855746,252.183104 519.855746,254.172252 L519.855746,254.197168 C519.855746,256.185624 521.306795,257.812101 523.307263,257.812101 C525.308424,257.812101 526.734562,256.211232 526.734562,254.222084 M518.830254,254.222084 L518.830254,254.197168 C518.830254,251.782367 520.643201,249.667946 523.307263,249.667946 C525.971326,249.667946 527.760054,251.757451 527.760054,254.172252 L527.760054,254.197168 C527.760054,256.611276 525.946415,258.725698 523.282353,258.725698 C520.61829,258.725698 518.830254,256.636193 518.830254,254.222084" id="Fill-30" fill="#FFFFFF" mask="url(#mask-2)"></path>
                    <path d="M529.710562,254.910188 L529.710562,249.818967 L530.698687,249.818967 L530.698687,254.847898 C530.698687,256.736688 531.711723,257.799782 533.375205,257.799782 C534.988866,257.799782 536.014357,256.823895 536.014357,254.910188 L536.014357,249.818967 L537.002482,249.818967 L537.002482,254.835439 C537.002482,257.387279 535.538978,258.713378 533.350295,258.713378 C531.186522,258.713378 529.710562,257.387279 529.710562,254.910188" id="Fill-31" fill="#FFFFFF" mask="url(#mask-2)"></path>
                    <path d="M540.328547,250.731801 L540.328547,257.662673 L542.379529,257.662673 C544.593815,257.662673 546.006806,256.161469 546.006806,254.222153 L546.006806,254.197237 C546.006806,252.257922 544.593815,250.731801 542.379529,250.731801 L540.328547,250.731801 Z M539.340422,249.818897 L542.379529,249.818897 C545.131471,249.818897 547.032297,251.707688 547.032297,254.172321 L547.032297,254.197237 C547.032297,256.661178 545.131471,258.575577 542.379529,258.575577 L539.340422,258.575577 L539.340422,249.818897 Z" id="Fill-32" fill="#FFFFFF" mask="url(#mask-2)"></path>
                    <path d="M291.486496,167.442778 L303.046451,167.442778 L303.046451,156.828453 L291.486496,156.828453 L291.486496,167.442778 Z M276.32625,156.828453 L276.32625,150.383448 L317.448304,150.383448 L317.448304,156.828453 L310.436629,156.828453 L310.436629,167.442778 L319.533192,167.442778 L319.533192,174.077424 L310.436629,174.077424 L310.436629,192.652493 L303.046451,192.652493 L303.046451,174.077424 L291.296897,174.077424 C291.421451,182.417448 287.758884,188.924052 280.305737,193.600695 C279.041518,192.336195 277.14692,190.567833 274.620558,188.29284 C280.936808,184.756808 284.096317,180.018567 284.096317,174.077424 L274.052455,174.077424 L274.052455,167.442778 L284.285223,167.442778 L284.285223,156.828453 L276.32625,156.828453 Z" id="Fill-33" fill="#FFFFFF" mask="url(#mask-2)"></path>
                    <path d="M364.081783,172.750495 L350.62723,172.750495 C352.773703,175.782665 354.920176,178.057657 357.070109,179.574088 C360.102297,177.426445 362.438368,175.152145 364.081783,172.750495 L364.081783,172.750495 Z M332.245199,163.27332 L332.245199,157.017955 C333.505958,154.112443 334.453949,151.586211 335.087788,149.4358 L342.09877,150.194362 C341.086426,152.975293 340.204172,155.187995 339.445779,156.828315 L345.510154,156.828315 C346.141225,154.808714 346.771605,152.279714 347.405444,149.246852 C347.529998,148.61564 347.657319,148.174761 347.783949,147.920061 L355.174819,148.48829 C354.417118,151.017982 353.658725,153.795453 352.901025,156.828315 L365.218681,156.828315 C362.817565,154.429433 361.111873,152.785652 360.102297,151.900433 L364.460288,148.109009 C364.839484,148.48829 365.470556,148.994921 366.355578,149.62544 C368.881248,151.648502 370.649217,153.164933 371.66156,154.174733 L368.629373,156.828315 L376.589038,156.828315 L376.589038,163.27332 L351.005734,163.27332 C351.005734,163.400669 350.94069,163.651908 350.816828,164.031189 C350.561493,164.665169 350.182989,165.612679 349.679239,166.874411 L372.419953,166.874411 L372.419953,172.560854 C369.512319,177.109455 366.545176,180.586657 363.512989,182.986231 C367.302877,184.377389 371.723837,185.515231 376.778636,186.397682 C375.641739,187.914113 374.439105,190.188413 373.177654,193.221275 C366.607453,191.325564 361.239194,189.365485 357.070109,187.345192 C353.024886,189.240903 347.59435,191.325564 340.772275,193.600556 C339.508056,190.567694 338.371158,188.482342 337.361583,187.345192 C342.667565,186.08346 347.215846,184.567029 351.005734,182.796591 C349.111136,181.28016 347.215846,179.005859 345.320556,175.972305 C342.540243,180.900879 338.308882,185.828761 332.624395,190.757334 C331.866002,187.22061 331.232163,184.567029 330.729105,182.796591 C336.792788,177.236805 341.086426,170.730894 343.614864,163.27332 L332.245199,163.27332 Z" id="Fill-34" fill="#FFFFFF" mask="url(#mask-2)"></path>
                    <path d="M415.452312,161.377539 C416.968406,160.240388 418.4845,159.040948 420.000594,157.776448 L410.14633,157.776448 L410.14633,161.377539 L415.452312,161.377539 Z M401.618562,186.587253 L422.274388,186.587253 L422.274388,183.554391 L401.618562,183.554391 L401.618562,186.587253 Z M422.274388,175.593647 L402.376955,175.593647 L401.618562,175.972236 L401.618562,178.625817 L422.274388,178.625817 L422.274388,175.593647 Z M392.143496,157.776448 L392.143496,152.279645 L403.324254,152.279645 L403.324254,148.109632 L410.14633,148.109632 L410.14633,152.279645 L420.190192,152.279645 L420.190192,157.397167 C422.843183,155.250216 425.368853,152.847874 427.769969,150.194292 L433.265549,153.795383 C430.485237,156.577007 427.704924,159.103238 424.927379,161.377539 L433.834344,161.377539 L433.834344,167.063982 L417.347603,167.063982 C415.831509,168.201132 414.125817,169.276684 412.231219,170.286484 L429.096464,170.286484 L429.096464,193.410847 L422.274388,193.410847 L422.274388,191.515135 L401.618562,191.515135 L401.618562,193.410847 L394.796487,193.410847 L394.796487,179.194738 C394.038786,179.449438 392.963473,179.891009 391.574701,180.522221 C390.689679,180.776228 389.993562,181.028159 389.490504,181.28009 L387.784812,174.455805 C394.606888,172.308854 400.73354,169.844913 406.166844,167.063982 L388.164009,167.063982 L388.164009,161.377539 L403.324254,161.377539 L403.324254,157.776448 L392.143496,157.776448 Z" id="Fill-35" fill="#FFFFFF" mask="url(#mask-2)"></path>
                    <path d="M446.735672,166.685047 L446.735672,159.671813 L464.35931,159.671813 C464.611185,154.364651 464.738507,150.573227 464.738507,148.298927 L472.318975,148.298927 C472.318975,149.436077 472.253239,151.331789 472.129377,153.98537 C472.129377,156.638951 472.064333,158.534663 471.939779,159.671813 L489.942614,159.671813 L489.942614,166.685047 L472.129377,166.685047 C474.148529,176.668853 480.529132,183.175456 491.269109,186.208318 C490.256766,187.345468 488.740672,189.303471 486.720828,192.08371 C486.972703,191.705121 486.783105,191.957052 486.152033,192.842271 C476.928842,189.176121 470.99248,183.430156 468.339489,175.593993 C466.189556,182.544936 460.125181,188.482619 450.146364,193.411193 C448.251766,190.630262 446.670627,188.544909 445.409176,187.155828 C456.779533,182.606535 462.905493,175.782941 463.790516,166.685047 L446.735672,166.685047 Z" id="Fill-36" fill="#FFFFFF" mask="url(#mask-2)"></path>
                    <path d="M517.43567,186.018747 C520.088661,186.018747 525.205737,185.894166 532.785513,185.639466 L529.753326,181.848735 L532.785513,179.573742 L523.310446,179.573742 C522.424732,180.587003 521.098237,182.038375 519.330268,183.933395 C518.572567,184.819306 517.93942,185.514885 517.43567,186.018747 L517.43567,186.018747 Z M525.963437,155.122589 C523.434308,157.90352 520.467857,160.557102 517.056473,163.083333 L534.301607,163.083333 C531.142098,160.809033 528.361786,158.155451 525.963437,155.122589 L525.963437,155.122589 Z M503.60192,179.573742 L503.60192,173.31907 L547.377656,173.31907 L547.377656,179.573742 L535.817701,179.573742 C536.575402,180.332304 537.712299,181.469454 539.228393,182.985885 C540.36529,184.123035 542.512455,186.207695 545.671964,189.240557 L540.176384,193.790543 L537.712299,190.756988 L536.196205,190.756988 C525.963437,191.136269 519.582835,191.450491 517.056473,191.70519 C514.024286,191.829772 511.62317,192.146762 509.855201,192.6527 L507.012612,186.586976 C508.907902,185.704525 510.423996,184.567375 511.560893,183.175525 C512.69779,182.165725 513.834687,180.966284 514.972277,179.573742 L503.60192,179.573742 Z M544.913571,169.528338 C542.26058,168.139257 539.859464,166.812466 537.712299,165.547966 L537.712299,169.528338 L513.266585,169.528338 L513.266585,165.926555 C512.887388,166.181254 512.191272,166.560535 511.181696,167.064397 C510.296674,167.697685 508.590982,168.708178 506.065312,170.096567 C505.81067,169.717979 505.49721,169.149057 505.118013,168.391188 C503.726473,166.243545 502.778482,164.727114 502.275424,163.841895 C511.495848,159.547301 518.256339,154.240139 522.552746,147.919715 L530.890223,148.298996 L529.942924,150.005067 C534.615067,155.81886 540.86904,160.178513 548.704152,163.083333 C546.68154,166.243545 545.417321,168.391188 544.913571,169.528338 L544.913571,169.528338 Z" id="Fill-37" fill="#FFFFFF" mask="url(#mask-2)"></path>
                    <path d="M523.957917,41.9692187 L524.005663,42.2190734 C523.472158,43.2690167 519.634525,48.0127951 512.492069,56.4511005 C508.758922,55.8697212 505.144792,55.9126325 501.649681,56.5805266 L498.591891,57.1646744 C487.399368,59.3012433 480.324725,66.0639305 477.367962,77.4555044 C476.713364,81.0309872 476.779792,84.8791645 477.565864,88.9986522 L477.613609,89.2485069 C478.241221,92.5353764 478.890283,94.6982458 479.562873,95.7336547 C479.036288,97.0417581 475.134993,101.905965 467.858989,110.325583 C464.249011,105.192142 461.784234,99.1707138 460.466734,92.2633739 C456.955708,73.8696399 463.085819,58.6603419 478.859145,46.6340956 C484.438453,43.1105217 490.536734,40.7164847 497.151913,39.453369 C506.346042,37.6981571 515.282069,38.5363123 523.957917,41.9692187" id="Fill-38" fill="#FFFFFF" mask="url(#mask-2)"></path>
                    <path d="M542.2994,44.8722394 L472.869087,128.777732 C471.481007,127.835067 469.616855,126.314483 467.276632,124.217365 L536.695181,40.2488897 C538.081877,41.1915547 539.950181,42.732902 542.2994,44.8722394" id="Fill-39" fill="#FFFFFF" mask="url(#mask-2)"></path>
                </g>
                <g transform="translate(0.000000, 4.000000)">
                    <polygon id="Fill-42" fill="#FFFFFF" points="120.692411 215.516259 115.544888 215.516259 115.544888 228.420512 112.336942 228.420512 112.336942 215.516259 107.113996 215.516259 107.113996 212.831216 120.692411 212.831216"></polygon>
                    <polygon id="Fill-44" fill="#FFFFFF" points="135.016556 228.420789 122.781243 228.420789 122.781243 212.831493 134.718319 212.831493 134.718319 215.516535 126.063922 215.516535 126.063922 219.171541 134.195886 219.171541 134.195886 221.856584 126.063922 221.856584 126.063922 225.884493 135.016556 225.884493"></polygon>
                    <path d="M151.280415,217.381329 L148.221933,218.127135 C147.624768,216.38715 146.431129,215.466999 144.640326,215.367374 C142.104277,215.51612 140.761174,217.282395 140.612402,220.663431 C140.761174,223.996039 142.128496,225.785836 144.715058,226.034208 C146.754277,226.034208 147.972134,224.840779 148.370705,222.453921 L151.504612,223.497912 C150.708161,226.928761 148.445437,228.668746 144.715058,228.71925 C139.940504,228.519999 137.452893,225.835649 137.254299,220.663431 C137.502714,215.541718 139.989634,212.856676 144.715058,212.607613 C148.096687,212.756359 150.285371,214.348981 151.280415,217.381329" id="Fill-46" fill="#FFFFFF"></path>
                    <polygon id="Fill-48" fill="#FFFFFF" points="167.768333 228.420789 164.485654 228.420789 164.485654 222.006022 157.323824 222.006022 157.323824 228.420789 154.041145 228.420789 154.041145 212.831493 157.323824 212.831493 157.323824 219.24626 164.485654 219.24626 164.485654 212.831493 167.768333 212.831493"></polygon>
                    <polygon id="Fill-50" fill="#FFFFFF" points="188.58331 228.420789 176.347998 228.420789 176.347998 212.831493 188.285074 212.831493 188.285074 215.516535 179.630676 215.516535 179.630676 219.171541 187.762641 219.171541 187.762641 221.856584 179.630676 221.856584 179.630676 225.884493 188.58331 225.884493"></polygon>
                    <path d="M204.84717,217.381329 L201.788687,218.127135 C201.191522,216.38715 199.997884,215.466999 198.20708,215.367374 C195.671031,215.51612 194.327929,217.282395 194.179156,220.663431 C194.327929,223.996039 195.69525,225.785836 198.281812,226.034208 C200.321031,226.034208 201.538888,224.840779 201.93746,222.453921 L205.071366,223.497912 C204.274915,226.928761 202.012192,228.668746 198.281812,228.71925 C193.507259,228.519999 191.019647,225.835649 190.821054,220.663431 C191.069469,215.541718 193.556388,212.856676 198.281812,212.607613 C201.663442,212.756359 203.851433,214.348981 204.84717,217.381329" id="Fill-52" fill="#FFFFFF"></path>
                    <polygon id="Fill-54" fill="#FFFFFF" points="221.335018 228.420789 218.052339 228.420789 218.052339 222.006022 210.890509 222.006022 210.890509 228.420789 207.60783 228.420789 207.60783 212.831493 210.890509 212.831493 210.890509 219.24626 218.052339 219.24626 218.052339 212.831493 221.335018 212.831493"></polygon>
                    <path d="M231.556022,226.034069 C234.290665,225.934444 235.707808,224.169553 235.808835,220.738012 C235.707808,217.306471 234.290665,215.515982 231.556022,215.367236 C228.918946,215.566486 227.527406,217.356976 227.377942,220.738012 C227.476893,224.120432 228.869817,225.884631 231.556022,226.034069 M231.704795,212.607474 C236.48004,212.905659 239.041,215.616299 239.389058,220.738012 C239.139951,225.809912 236.554772,228.470048 231.630062,228.719112 C226.755866,228.420927 224.194214,225.760792 223.945799,220.738012 C224.194214,215.566486 226.781469,212.85723 231.704795,212.607474" id="Fill-56" fill="#FFFFFF"></path>
                    <path d="M252.14708,215.516259 L250.505741,215.516259 L250.505741,225.959627 L252.14708,225.959627 C255.52871,225.959627 257.219871,224.169138 257.219871,220.588851 C257.120228,217.306748 255.429759,215.616576 252.14708,215.516259 M252.370585,228.420512 L247.297795,228.420512 L247.297795,212.831216 L252.221121,212.831216 C257.742304,212.931534 260.551679,215.492044 260.652013,220.514132 C260.850607,225.985225 258.08967,228.619071 252.370585,228.420512" id="Fill-58" fill="#FFFFFF"></path>
                    <polygon id="Fill-60" fill="#FFFFFF" points="275.647502 228.420789 263.41219 228.420789 263.41219 212.831493 275.349266 212.831493 275.349266 215.516535 266.694868 215.516535 266.694868 219.171541 274.826833 219.171541 274.826833 221.856584 266.694868 221.856584 266.694868 225.884493 275.647502 225.884493"></polygon>
                    <path d="M292.508388,212.831285 L286.540196,228.420582 L282.884549,228.420582 L276.841625,212.831285 L280.347808,212.831285 L284.227652,224.019769 C284.475375,224.765576 284.64975,225.287917 284.749393,225.586793 L284.824125,225.586793 C284.824125,225.537672 284.848344,225.437355 284.898857,225.287917 C285.096759,224.691548 285.246223,224.269524 285.346558,224.019769 L289.002205,212.831285 L292.508388,212.831285 Z" id="Fill-62" fill="#FFFFFF"></path>
                    <polygon id="Fill-64" fill="#FFFFFF" points="306.459842 228.420789 294.224529 228.420789 294.224529 212.831493 306.160913 212.831493 306.160913 215.516535 297.507208 215.516535 297.507208 219.171541 305.63848 219.171541 305.63848 221.856584 297.507208 221.856584 297.507208 225.884493 306.459842 225.884493"></polygon>
                    <polygon id="Fill-66" fill="#FFFFFF" points="320.634592 228.420789 309.294681 228.420789 309.294681 212.831493 312.502627 212.831493 312.502627 225.959212 320.634592 225.959212"></polygon>
                    <path d="M329.8856,226.034069 C332.620243,225.934444 334.037386,224.169553 334.138413,220.738012 C334.037386,217.306471 332.620243,215.515982 329.8856,215.367236 C327.248525,215.566486 325.856984,217.356976 325.70752,220.738012 C325.806471,224.120432 327.200087,225.884631 329.8856,226.034069 M330.035065,212.607474 C334.809618,212.905659 337.370578,215.616299 337.719328,220.738012 C337.469529,225.809912 334.88435,228.470048 329.960333,228.719112 C325.085444,228.420927 322.523792,225.760792 322.275377,220.738012 C322.523792,215.566486 325.111047,212.85723 330.035065,212.607474" id="Fill-68" fill="#FFFFFF"></path>
                    <path d="M346.298786,215.367305 L343.613272,215.367305 L343.613272,220.365178 L346.298786,220.365178 C348.287491,220.316057 349.283228,219.469933 349.283228,217.828882 C349.233406,216.237643 348.238362,215.417118 346.298786,215.367305 M346.597022,222.900782 L343.613272,222.900782 L343.613272,228.420997 L340.404634,228.420997 L340.404634,212.831009 L346.895951,212.831009 C350.625638,212.931326 352.565906,214.572377 352.714679,217.754163 C352.714679,221.185704 350.674768,222.900782 346.597022,222.900782" id="Fill-70" fill="#FFFFFF"></path>
                    <polygon id="Fill-72" fill="#FFFFFF" points="367.486871 228.420789 355.251558 228.420789 355.251558 212.831493 367.188634 212.831493 367.188634 215.516535 358.534237 215.516535 358.534237 219.171541 366.666201 219.171541 366.666201 221.856584 358.534237 221.856584 358.534237 225.884493 367.486871 225.884493"></polygon>
                    <path d="M373.604388,215.367305 L373.604388,219.842837 L376.887067,219.842837 C378.976107,219.842837 379.994679,219.09703 379.946241,217.604725 C379.994679,216.113111 378.976107,215.367305 376.887067,215.367305 L373.604388,215.367305 Z M384.198362,228.420997 L380.020281,228.420997 L375.991665,222.304414 L373.604388,222.304414 L373.604388,228.420997 L370.32171,228.420997 L370.32171,212.831009 L377.48354,212.831009 C381.214612,212.931326 383.178406,214.47206 383.377692,217.455979 C383.377692,220.042087 382.0595,221.584205 379.423808,222.080256 L384.198362,228.420997 Z" id="Fill-74" fill="#FFFFFF"></path>
                    <path d="M404.715033,217.381329 L401.655859,218.127135 C401.059386,216.38715 399.865748,215.466999 398.074944,215.367374 C395.538203,215.51612 394.1951,217.282395 394.046328,220.663431 C394.1951,223.996039 395.562422,225.785836 398.149676,226.034208 C400.188203,226.034208 401.406752,224.840779 401.805324,222.453921 L404.938538,223.497912 C404.142779,226.928761 401.880056,228.668746 398.149676,228.71925 C393.375123,228.519999 390.887511,225.835649 390.688917,220.663431 C390.937333,215.541718 393.424252,212.856676 398.149676,212.607613 C401.531306,212.756359 403.719297,214.348981 404.715033,217.381329" id="Fill-76" fill="#FFFFFF"></path>
                    <path d="M414.339011,226.034069 C417.073654,225.934444 418.490797,224.169553 418.591824,220.738012 C418.490797,217.306471 417.073654,215.515982 414.339011,215.367236 C411.701935,215.566486 410.310395,217.356976 410.160931,220.738012 C410.259882,224.120432 411.653498,225.884631 414.339011,226.034069 M414.488475,212.607474 C419.263029,212.905659 421.823989,215.616299 422.172739,220.738012 C421.92294,225.809912 419.337761,228.470048 414.413743,228.719112 C409.538855,228.420927 406.977203,225.760792 406.728788,220.738012 C406.977203,215.566486 409.564458,212.85723 414.488475,212.607474" id="Fill-78" fill="#FFFFFF"></path>
                    <path d="M438.660518,228.420789 L435.303107,228.420789 C431.174156,222.006022 429.035987,218.6492 428.886522,218.351016 C428.439513,217.605209 428.140585,217.082868 427.991812,216.784683 C428.040942,217.232306 428.066545,218.153149 428.066545,219.544445 L428.066545,228.420789 L425.007371,228.420789 L425.007371,212.831493 L428.513554,212.831493 C432.492348,219.19714 434.581388,222.527671 434.780674,222.826547 C435.277504,223.622167 435.551522,224.144508 435.601344,224.39288 L435.676076,224.39288 C435.625562,224.045575 435.601344,223.249263 435.601344,222.006022 L435.601344,212.831493 L438.660518,212.831493 L438.660518,228.420789 Z" id="Fill-80" fill="#FFFFFF"></path>
                    <polygon id="Fill-82" fill="#FFFFFF" points="453.133643 215.516259 445.300607 215.516259 445.300607 219.544168 452.164201 219.544168 452.164201 222.155183 445.300607 222.155183 445.300607 228.420512 442.091969 228.420512 442.091969 212.831216 453.133643 212.831216"></polygon>
                    <polygon id="Fill-84" fill="#FFFFFF" points="468.054815 228.420789 455.819502 228.420789 455.819502 212.831493 467.756578 212.831493 467.756578 215.516535 459.102181 215.516535 459.102181 219.171541 467.234145 219.171541 467.234145 221.856584 459.102181 221.856584 459.102181 225.884493 468.054815 225.884493"></polygon>
                    <path d="M474.172333,215.367305 L474.172333,219.842837 L477.455011,219.842837 C479.544051,219.842837 480.562623,219.09703 480.514185,217.604725 C480.562623,216.113111 479.544051,215.367305 477.455011,215.367305 L474.172333,215.367305 Z M484.766306,228.420997 L480.588225,228.420997 L476.559609,222.304414 L474.172333,222.304414 L474.172333,228.420997 L470.889654,228.420997 L470.889654,212.831009 L478.051484,212.831009 C481.782556,212.931326 483.74635,214.47206 483.945636,217.455979 C483.945636,220.042087 482.627444,221.584205 479.991752,222.080256 L484.766306,228.420997 Z" id="Fill-86" fill="#FFFFFF"></path>
                    <polygon id="Fill-88" fill="#FFFFFF" points="498.717482 228.420789 486.48217 228.420789 486.48217 212.831493 498.419246 212.831493 498.419246 215.516535 489.764848 215.516535 489.764848 219.171541 497.896812 219.171541 497.896812 221.856584 489.764848 221.856584 489.764848 225.884493 498.717482 225.884493"></polygon>
                    <path d="M515.354656,228.420789 L511.997246,228.420789 C507.868295,222.006022 505.730125,218.6492 505.580661,218.351016 C505.133652,217.605209 504.834723,217.082868 504.685951,216.784683 C504.73508,217.232306 504.760683,218.153149 504.760683,219.544445 L504.760683,228.420789 L501.701509,228.420789 L501.701509,212.831493 L505.207692,212.831493 C509.186487,219.19714 511.275527,222.527671 511.474812,222.826547 C511.971643,223.622167 512.245661,224.144508 512.295482,224.39288 L512.370214,224.39288 C512.319701,224.045575 512.295482,223.249263 512.295482,222.006022 L512.295482,212.831493 L515.354656,212.831493 L515.354656,228.420789 Z" id="Fill-90" fill="#FFFFFF"></path>
                    <path d="M532.215196,217.381329 L529.156714,218.127135 C528.559549,216.38715 527.365911,215.466999 525.575107,215.367374 C523.039058,215.51612 521.695955,217.282395 521.547183,220.663431 C521.695955,223.996039 523.063277,225.785836 525.649839,226.034208 C527.689058,226.034208 528.906915,224.840779 529.305487,222.453921 L532.439393,223.497912 C531.642942,226.928761 529.380219,228.668746 525.649839,228.71925 C520.875286,228.519999 518.387674,225.835649 518.18908,220.663431 C518.437496,215.541718 520.924415,212.856676 525.649839,212.607613 C529.031469,212.756359 531.21946,214.348981 532.215196,217.381329" id="Fill-92" fill="#FFFFFF"></path>
                    <polygon id="Fill-94" fill="#FFFFFF" points="547.136368 228.420789 534.901056 228.420789 534.901056 212.831493 546.838132 212.831493 546.838132 215.516535 538.183734 215.516535 538.183734 219.171541 546.315699 219.171541 546.315699 221.856584 538.183734 221.856584 538.183734 225.884493 547.136368 225.884493"></polygon>
                    <g>
                        <mask id="mask-4" fill="white">
                            <use xlink:href="#path-3"></use>
                        </mask>
                        <g id="Clip-97"></g>
                        <path d="M1.68064286,126.37493 L46.6943036,126.37493 L46.6943036,113.608353 L17.4913348,113.608353 L17.4913348,14.6007909 L46.6943036,14.6007909 L46.6943036,1.8342139 L1.68064286,1.8342139 L1.68064286,126.37493 Z M48.3750848,128.055416 L-0.000138392857,128.055416 L-0.000138392857,0.154419335 L48.3750848,0.154419335 L48.3750848,16.2812773 L19.1721161,16.2812773 L19.1721161,111.927866 L48.3750848,111.927866 L48.3750848,128.055416 Z" id="Fill-96" fill="#E5E6E7" mask="url(#mask-4)"></path>
                    </g>
                    <path d="M572.502879,126.37493 L617.668772,126.37493 L617.668772,1.8342139 L572.502879,1.8342139 L572.502879,14.6007909 L601.705848,14.6007909 L601.705848,113.608353 L572.502879,113.608353 L572.502879,126.37493 Z M619.349554,128.055416 L570.822098,128.055416 L570.822098,111.927866 L600.025067,111.927866 L600.025067,16.2812773 L570.822098,16.2812773 L570.822098,0.154419335 L619.349554,0.154419335 L619.349554,128.055416 Z" id="Fill-98" fill="#E5E6E7"></path>
                    <polygon id="Fill-100" fill="#00F3FD" points="70.0046429 20.4944622 174.952098 20.4944622 174.952098 0.276045317 70.0046429 0.276045317"></polygon>
                    <polygon id="Fill-102" fill="#00F3FD" points="112.367388 127.683758 132.588661 127.683758 132.588661 0.276045317 112.367388 0.276045317"></polygon>
                </g>
                <polygon id="Fill-103" fill="url(#linearGradient-5)" points="362.61377 128.466685 381.61377 128.466685 381.61377 0 362.61377 0"></polygon>
                <g transform="translate(163.000000, 38.000000)" fill="#FFFFFF">
                    <path d="M281.5021,90.5840886 L262.252656,90.5840886 L262.252656,41.3779068 C262.252656,29.4796568 252.524002,19.7998765 240.565678,19.7998765 C228.60666,19.7998765 218.878007,29.4796568 218.878007,41.3779068 L218.878007,90.5840886 L199.628562,90.5840886 L199.628562,41.3779068 C199.628562,18.9195205 217.993206,0.647134091 240.565678,0.647134091 C263.138149,0.647134091 281.5021,18.9195205 281.5021,41.3779068 L281.5021,90.5840886 Z" id="Fill-105"></path>
                    <path d="M166.89051,62.6992758 C162.016829,68.3578212 154.782525,71.9433591 146.705685,71.9433591 C132.029213,71.9433591 120.131861,60.1057758 120.131861,45.5030333 C120.131861,30.9002909 132.029213,19.0627076 146.705685,19.0627076 C154.782525,19.0627076 162.016829,22.6489348 166.89051,28.3067909 L180.077301,15.1862455 C171.814078,6.18620758 159.922962,0.539381818 146.705685,0.539381818 C121.747645,0.539381818 101.515011,20.6703742 101.515011,45.5030333 C101.515011,70.3356924 121.747645,90.4666848 146.705685,90.4666848 C159.922962,90.4666848 171.814078,84.8198591 180.077301,75.8198212 L166.89051,62.6992758 Z" id="Fill-107"></path>
                    <path d="M45.7270968,19.0422326 C57.6258339,19.0422326 67.7133966,26.7510356 71.2241926,37.4228538 L20.230001,37.4228538 C23.7407971,26.7510356 33.8283597,19.0422326 45.7270968,19.0422326 L45.7270968,19.0422326 Z M66.4398929,62.6856947 C61.5204826,68.6296492 54.0706939,72.4226947 45.7270968,72.4226947 C34.4401681,72.4226947 24.7828806,65.4867023 20.8224088,55.6649068 L37.6939076,55.6649068 L70.6317848,55.6649068 L89.7218683,55.6649068 C90.4473081,52.4695659 90.8325464,49.1459977 90.8325464,45.7321189 C90.8325464,20.9463386 70.6380206,0.853952273 45.7270968,0.853952273 C20.816173,0.853952273 0.621647174,20.9463386 0.621647174,45.7321189 C0.621647174,70.5178992 20.816173,90.610975 45.7270968,90.610975 C60.6724039,90.610975 73.9180894,83.3771644 82.1251902,72.2379371 L66.4398929,62.6856947 Z" id="Fill-109"></path>
                </g>
                <g transform="translate(165.000000, 94.000000)">
                    <mask id="mask-7" fill="white">
                        <use xlink:href="#path-6"></use>
                    </mask>
                    <g id="Clip-112"></g>
                    <path d="M0.397384615,0.0536470588 C5.02061538,20.4211765 22.923,35.6018824 44.3049231,35.6018824 L44.3049231,35.6018824 C59.238,35.6018824 72.4728462,28.1950588 80.6732308,16.7894118 L80.6732308,16.7894118 L65.0007692,7.00870588 C60.0853846,13.0948235 52.6416923,16.9785882 44.3049231,16.9785882 L44.3049231,16.9785882 C33.1158462,16.9785882 23.5322308,9.98470588 19.5175385,0.0536470588 L19.5175385,0.0536470588 L0.397384615,0.0536470588 Z" id="Fill-111" fill="url(#linearGradient-8)" mask="url(#mask-7)"></path>
                </g>
                <g transform="translate(487.000000, 58.000000)">
                    <path d="M44.5823936,13.9659231 C45.6134043,17.5652308 46.2322872,19.9052308 46.4383511,20.9886923 L46.4383511,20.9886923 C47.0655319,24.2764615 47.2736702,27.5164615 47.0634574,30.7059231 L47.0634574,30.7059231 C44.5201596,43.3578462 37.3245213,50.8160769 25.4751596,53.0813077 L25.4751596,53.0813077 L22.4194681,53.6656154 C19.5082979,54.2222308 15.991383,54.3115385 11.8701064,53.9349231 L11.8701064,53.9349231 L11.6204787,53.982 C4.58111702,62.4890769 0.763404255,66.9939231 0.170106383,67.4951538 L0.170106383,67.4951538 L0.265531915,67.995 C8.41680851,71.8733077 17.4601064,72.8626154 27.3975,70.9636154 L27.3975,70.9636154 C35.1719149,69.4772308 42.25,66.1396154 48.6289894,60.9521538 L48.6289894,60.9521538 C61.7901064,49.0742308 66.788883,34.8306923 63.6218617,18.2222308 L63.6218617,18.2222308 C62.2886702,11.2292308 59.9251596,5.27330769 56.5306383,0.357923077 L56.5306383,0.357923077 L56.483617,0.107307692 C56.0673404,0.186923077 52.100266,4.806 44.5823936,13.9659231" id="Clip-41"></path>
                    <path d="M44.5823936,13.9659231 C45.6134043,17.5652308 46.2322872,19.9052308 46.4383511,20.9886923 L46.4383511,20.9886923 C47.0655319,24.2764615 47.2736702,27.5164615 47.0634574,30.7059231 L47.0634574,30.7059231 C44.5201596,43.3578462 37.3245213,50.8160769 25.4751596,53.0813077 L25.4751596,53.0813077 L22.4194681,53.6656154 C19.5082979,54.2222308 15.991383,54.3115385 11.8701064,53.9349231 L11.8701064,53.9349231 L11.6204787,53.982 C4.58111702,62.4890769 0.763404255,66.9939231 0.170106383,67.4951538 L0.170106383,67.4951538 L0.265531915,67.995 C8.41680851,71.8733077 17.4601064,72.8626154 27.3975,70.9636154 L27.3975,70.9636154 C35.1719149,69.4772308 42.25,66.1396154 48.6289894,60.9521538 L48.6289894,60.9521538 C61.7901064,49.0742308 66.788883,34.8306923 63.6218617,18.2222308 L63.6218617,18.2222308 C62.2886702,11.2292308 59.9251596,5.27330769 56.5306383,0.357923077 L56.5306383,0.357923077 L56.483617,0.107307692 C56.0673404,0.186923077 52.100266,4.806 44.5823936,13.9659231" id="Fill-40" fill="url(#linearGradient-9)"></path>
                </g>
            </g>
        </g>
    </g>
</svg>